<svg width="32" height="32" xmlns="http://www.w3.org/2000/svg" version="1.1">
 <title>smile</title>

 <g>
  <title>Layer 1</title>
  <path id="svg_1" d="m24.74153,16.17731c0,4.88777 -3.9136,8.84987 -8.74153,8.84987s-8.74153,-3.96211 -8.74153,-8.84987m23.04649,0c0,7.99783 -6.40505,14.48227 -14.30496,14.48227s-14.30496,-6.48444 -14.30496,-14.48227c0,-7.99783 6.40505,-14.48227 14.30496,-14.48227s14.30496,6.48444 14.30496,14.48227z" stroke-miterlimit="4" stroke-width="2.6667" stroke="#666" fill="none"/>
  <path id="svg_2" d="m14.667,12c0,1.105 -0.895,2 -2,2s-2,-0.895 -2,-2s0.895,-2 2,-2c1.105,0 2,0.895 2,2z" fill="#666"/>
  <path id="svg_3" d="m21.333,12c0,1.105 -0.895,2 -2,2s-2,-0.895 -2,-2c0,-1.105 0.895,-2 2,-2s2,0.895 2,2z" fill="#666"/>
 </g>
</svg>